<svg xmlns="http://www.w3.org/2000/svg" viewBox="0 0 1000 441"><path d="M340.2 4.2h0m8.4 0h0m8.4 0h0m8.4 0h0m8.4 0h0m8.4 0h0m8.4 0h0m8.4 0h0m8.4 0h0m8.4 0h0m8.4 0h0m8.4 0h0m8.4 0h0m8.4 0h0m8.4 0h0M4.2 12.6h0m319.2 0h0m8.4 0h0m8.4 0h0m8.4 0h0m16.8 0h0m8.4 0h0m8.4 0h0m8.4 0h0m8.4 0h0m8.4 0h0m8.4 0h0m8.4 0h0m8.4 0h0m8.4 0h0m8.4 0h0m8.4 0h0m67.2 0h0m8.4 0h0m168 0h0M54.6 21h0m8.4 0h0m8.4 0h0m201.6 0h0m8.4 0h0m16.8 0h0m8.4 0h0m8.4 0h0m8.4 0h0m8.4 0h0m58.8 0h0m8.4 0h0m8.4 0h0m8.4 0h0m8.4 0h0m8.4 0h0m8.4 0h0m8.4 0h0m8.4 0h0m159.6 0h0m58.8 0h0m8.4 0h0m8.4 0h0m8.4 0h0m8.4 0h0m8.4 0h0m8.4 0h0m58.8 0h0m16.8 0h0M4.2 29.4h0m8.4 0h0m33.6 0h0m8.4 0h0m8.4 0h0m176.4 0h0m8.4 0h0m8.4 0h0m8.4 0h0m8.4 0h0m8.4 0h0m16.8 0h0m16.8 0h0m8.4 0h0m8.4 0h0m8.4 0h0m50.4 0h0m8.4 0h0m8.4 0h0m8.4 0h0m8.4 0h0m8.4 0h0m8.4 0h0m8.4 0h0m159.6 0h0m33.6 0h0m16.8 0h0m8.4 0h0m8.4 0h0m8.4 0h0m8.4 0h0m8.4 0h0m8.4 0h0m8.4 0h0m8.4 0h0m8.4 0h0m8.4 0h0m8.4 0h0m8.4 0h0m33.6 0h0m8.4 0h0m8.4 0h0m184.8 0h0M4.2 37.8h0m8.4 0h0m8.4 0h0m8.4 0h0m8.4 0h0m8.4 0h0m8.4 0h0m8.4 0h0m8.4 0h0m8.4 0h0m8.4 0h0m8.4 0h0m8.4 0h0m8.4 0h0m33.6 0h0m8.4 0h0m8.4 0h0m8.4 0h0m8.4 0h0m8.4 0h0m8.4 0h0m8.4 0h0m8.4 0h0m8.4 0h0m8.4 0h0m8.4 0h0m8.4 0h0m25.2 0h0m25.2 0h0m25.2 0h0m16.8 0h0m8.4 0h0m42 0h0m8.4 0h0m8.4 0h0m8.4 0h0m8.4 0h0m8.4 0h0m8.4 0h0m100.8 0h0m8.4 0h0m8.4 0h0m8.4 0h0m8.4 0h0m50.4 0h0m8.4 0h0m8.4 0h0m8.4 0h0m16.8 0h0m8.4 0h0m8.4 0h0m8.4 0h0m8.4 0h0m8.4 0h0m8.4 0h0m8.4 0h0m8.4 0h0m8.4 0h0m8.4 0h0m8.4 0h0m8.4 0h0m8.4 0h0m8.4 0h0m8.4 0h0m8.4 0h0m8.4 0h0m8.4 0h0m8.4 0h0m8.4 0h0m8.4 0h0m8.4 0h0m8.4 0h0m8.4 0h0m8.4 0h0m8.4 0h0m33.6 0h0m8.4 0h0m8.4 0h0m8.4 0h0m8.4 0h0m8.4 0h0m8.4 0h0m8.4 0h0m8.4 0h0m8.4 0h0M4.2 46.2h0m8.4 0h0m8.4 0h0m8.4 0h0m8.4 0h0m8.4 0h0m8.4 0h0m8.4 0h0m8.4 0h0m8.4 0h0m8.4 0h0m8.4 0h0m16.8 0h0m8.4 0h0m16.8 0h0m8.4 0h0m8.4 0h0m8.4 0h0m8.4 0h0m8.4 0h0m8.4 0h0m8.4 0h0m8.4 0h0m8.4 0h0m8.4 0h0m8.4 0h0m8.4 0h0m8.4 0h0m8.4 0h0m8.4 0h0m8.4 0h0m8.4 0h0m8.4 0h0m8.4 0h0m8.4 0h0m33.6 0h0m8.4 0h0m8.4 0h0m33.6 0h0m8.4 0h0m8.4 0h0m8.4 0h0m33.6 0h0m8.4 0h0m8.4 0h0m67.2 0h0m8.4 0h0m16.8 0h0m8.4 0h0m8.4 0h0m16.8 0h0m8.4 0h0m8.4 0h0m8.4 0h0m8.4 0h0m8.4 0h0m8.4 0h0m8.4 0h0m8.4 0h0m8.4 0h0m8.4 0h0m8.4 0h0m8.4 0h0m8.4 0h0m8.4 0h0m8.4 0h0m8.4 0h0m8.4 0h0m8.4 0h0m8.4 0h0m8.4 0h0m8.4 0h0m8.4 0h0m8.4 0h0m8.4 0h0m8.4 0h0m8.4 0h0m8.4 0h0m8.4 0h0m8.4 0h0m8.4 0h0m8.4 0h0m8.4 0h0m8.4 0h0m8.4 0h0m8.4 0h0m8.4 0h0m8.4 0h0m8.4 0h0m16.8 0h0m8.4 0h0m8.4 0h0m8.4 0h0m8.4 0h0m8.4 0h0m8.4 0h0m8.4 0h0m8.4 0h0M4.2 54.6h0m8.4 0h0m8.4 0h0m8.4 0h0m8.4 0h0m8.4 0h0m8.4 0h0m8.4 0h0m8.4 0h0m8.4 0h0m8.4 0h0m42 0h0m8.4 0h0m8.4 0h0m8.4 0h0m8.4 0h0m8.4 0h0m8.4 0h0m8.4 0h0m8.4 0h0m8.4 0h0m8.4 0h0m8.4 0h0m8.4 0h0m8.4 0h0m8.4 0h0m8.4 0h0m8.4 0h0m8.4 0h0m8.4 0h0m8.4 0h0m25.2 0h0m75.6 0h0m8.4 0h0m117.6 0h0m8.4 0h0m8.4 0h0m16.8 0h0m8.4 0h0m8.4 0h0m8.4 0h0m8.4 0h0m8.4 0h0m8.4 0h0m8.4 0h0m8.4 0h0m8.4 0h0m8.4 0h0m8.4 0h0m8.4 0h0m8.4 0h0m8.4 0h0m8.4 0h0m8.4 0h0m8.4 0h0m8.4 0h0m8.4 0h0m8.4 0h0m8.4 0h0m8.4 0h0m8.4 0h0m8.4 0h0m8.4 0h0m8.4 0h0m8.4 0h0m8.4 0h0m8.4 0h0m8.4 0h0m8.4 0h0m8.4 0h0m8.4 0h0m8.4 0h0m8.4 0h0m8.4 0h0m8.4 0h0m8.4 0h0m8.4 0h0m8.4 0h0m8.4 0h0m8.4 0h0m42 0h0m8.4 0h0m8.4 0h0m8.4 0h0m8.4 0h0m8.4 0h0m8.4 0h0M4.2 63h0m8.4 0h0m8.4 0h0m25.2 0h0m8.4 0h0m8.4 0h0m67.2 0h0m8.4 0h0m8.4 0h0m8.4 0h0m25.2 0h0m8.4 0h0m8.4 0h0m8.4 0h0m8.4 0h0m8.4 0h0m8.4 0h0m8.4 0h0m8.4 0h0m8.4 0h0m8.4 0h0m8.4 0h0m8.4 0h0m42 0h0m8.4 0h0m184.8 0h0m8.4 0h0m8.4 0h0m8.4 0h0m25.2 0h0m8.4 0h0m8.4 0h0m8.4 0h0m8.4 0h0m8.4 0h0m8.4 0h0m8.4 0h0m8.4 0h0m8.4 0h0m8.4 0h0m8.4 0h0m8.4 0h0m8.4 0h0m8.4 0h0m8.4 0h0m8.4 0h0m8.4 0h0m8.4 0h0m8.4 0h0m8.4 0h0m8.4 0h0m8.4 0h0m8.4 0h0m8.4 0h0m8.4 0h0m8.4 0h0m8.4 0h0m8.4 0h0m8.4 0h0m8.4 0h0m8.4 0h0m8.4 0h0m8.4 0h0m8.4 0h0m25.2 0h0m67.2 0h0m8.4 0h0m8.4 0h0m8.4 0h0m16.8 0h0M29.4 71.4h0m100.8 0h0m8.4 0h0m50.4 0h0m8.4 0h0m8.4 0h0m8.4 0h0m8.4 0h0m8.4 0h0m8.4 0h0m8.4 0h0m8.4 0h0m8.4 0h0m8.4 0h0m8.4 0h0m42 0h0m8.4 0h0m8.4 0h0m8.4 0h0m142.8 0h0m42 0h0m25.2 0h0m8.4 0h0m8.4 0h0m8.4 0h0m8.4 0h0m8.4 0h0m8.4 0h0m8.4 0h0m8.4 0h0m8.4 0h0m8.4 0h0m8.4 0h0m8.4 0h0m8.4 0h0m8.4 0h0m8.4 0h0m8.4 0h0m8.4 0h0m8.4 0h0m8.4 0h0m8.4 0h0m8.4 0h0m8.4 0h0m8.4 0h0m8.4 0h0m8.4 0h0m8.4 0h0m8.4 0h0m8.4 0h0m8.4 0h0m8.4 0h0m8.4 0h0m50.4 0h0m8.4 0h0M12.6 79.8h0m8.4 0h0m168 0h0m8.4 0h0m8.4 0h0m8.4 0h0m8.4 0h0m8.4 0h0m8.4 0h0m8.4 0h0m8.4 0h0m8.4 0h0m8.4 0h0m8.4 0h0m8.4 0h0m8.4 0h0m16.8 0h0m8.4 0h0m8.4 0h0m8.4 0h0m8.4 0h0m8.4 0h0m126 0h0m42 0h0m16.8 0h0m8.4 0h0m8.4 0h0m8.4 0h0m8.4 0h0m8.4 0h0m8.4 0h0m8.4 0h0m8.4 0h0m8.4 0h0m8.4 0h0m8.4 0h0m8.4 0h0m8.4 0h0m8.4 0h0m8.4 0h0m8.4 0h0m8.4 0h0m8.4 0h0m8.4 0h0m8.4 0h0m8.4 0h0m8.4 0h0m8.4 0h0m8.4 0h0m8.4 0h0m8.4 0h0m8.4 0h0m8.4 0h0m8.4 0h0m8.4 0h0m8.4 0h0m8.4 0h0m8.4 0h0m8.4 0h0m50.4 0h0M4.2 88.2h0m184.8 0h0m8.4 0h0m8.4 0h0m8.4 0h0m8.4 0h0m8.4 0h0m8.4 0h0m8.4 0h0m8.4 0h0m8.4 0h0m8.4 0h0m8.4 0h0m8.4 0h0m8.4 0h0m16.8 0h0m8.4 0h0m8.4 0h0m8.4 0h0m8.4 0h0m8.4 0h0m134.4 0h0m8.4 0h0m16.8 0h0m8.4 0h0m8.4 0h0m8.4 0h0m8.4 0h0m8.4 0h0m8.4 0h0m8.4 0h0m8.4 0h0m8.4 0h0m8.4 0h0m8.4 0h0m8.4 0h0m8.4 0h0m8.4 0h0m8.4 0h0m8.4 0h0m8.4 0h0m8.4 0h0m8.4 0h0m8.4 0h0m8.4 0h0m8.4 0h0m8.4 0h0m8.4 0h0m8.4 0h0m8.4 0h0m8.4 0h0m8.4 0h0m8.4 0h0m8.4 0h0m8.4 0h0m8.4 0h0m8.4 0h0m8.4 0h0m8.4 0h0m8.4 0h0m8.4 0h0m8.4 0h0M189 96.6h0m8.4 0h0m8.4 0h0m8.4 0h0m8.4 0h0m8.4 0h0m8.4 0h0m8.4 0h0m8.4 0h0m8.4 0h0m8.4 0h0m8.4 0h0m8.4 0h0m8.4 0h0m8.4 0h0m8.4 0h0m8.4 0h0m33.6 0h0m8.4 0h0m134.4 0h0m8.4 0h0m8.4 0h0m8.4 0h0m8.4 0h0m8.4 0h0m8.4 0h0m8.4 0h0m8.4 0h0m8.4 0h0m8.4 0h0m8.4 0h0m8.4 0h0m8.4 0h0m8.4 0h0m8.4 0h0m8.4 0h0m8.4 0h0m8.4 0h0m8.4 0h0m8.4 0h0m8.4 0h0m8.4 0h0m8.4 0h0m8.4 0h0m8.4 0h0m8.4 0h0m8.4 0h0m8.4 0h0m8.4 0h0m8.4 0h0m8.4 0h0m8.4 0h0m8.4 0h0m8.4 0h0m8.4 0h0m8.4 0h0m8.4 0h0m8.4 0h0m8.4 0h0m8.4 0h0m8.4 0h0m8.4 0h0M189 105h0m8.4 0h0m8.4 0h0m8.4 0h0m8.4 0h0m8.4 0h0m8.4 0h0m8.4 0h0m8.4 0h0m8.4 0h0m8.4 0h0m8.4 0h0m8.4 0h0m8.4 0h0m8.4 0h0m8.4 0h0m8.4 0h0m8.4 0h0m8.4 0h0m159.6 0h0m8.4 0h0m8.4 0h0m8.4 0h0m8.4 0h0m8.4 0h0m8.4 0h0m8.4 0h0m8.4 0h0m8.4 0h0m8.4 0h0m16.8 0h0m8.4 0h0m8.4 0h0m16.8 0h0m8.4 0h0m8.4 0h0m8.4 0h0m8.4 0h0m8.4 0h0m8.4 0h0m8.4 0h0m8.4 0h0m8.4 0h0m8.4 0h0m8.4 0h0m8.4 0h0m8.4 0h0m8.4 0h0m8.4 0h0m8.4 0h0m8.4 0h0m8.4 0h0m8.4 0h0m8.4 0h0m8.4 0h0m8.4 0h0m8.4 0h0m8.4 0h0m8.4 0h0M189 113.4h0m8.4 0h0m8.4 0h0m8.4 0h0m8.4 0h0m8.4 0h0m8.4 0h0m8.4 0h0m8.4 0h0m8.4 0h0m8.4 0h0m8.4 0h0m8.4 0h0m8.4 0h0m8.4 0h0m8.4 0h0m16.8 0h0m168 0h0m8.4 0h0m8.4 0h0m16.8 0h0m8.4 0h0m8.4 0h0m8.4 0h0m8.4 0h0m42 0h0m8.4 0h0m16.8 0h0m8.4 0h0m8.4 0h0m8.4 0h0m8.4 0h0m8.4 0h0m8.4 0h0m8.4 0h0m8.4 0h0m8.4 0h0m8.4 0h0m8.4 0h0m8.4 0h0m8.4 0h0m8.4 0h0m8.4 0h0m8.4 0h0m8.4 0h0m8.4 0h0m8.4 0h0m8.4 0h0m8.4 0h0m8.4 0h0m8.4 0h0m8.4 0h0m8.4 0h0m16.8 0h0m8.4 0h0M180.6 121.8h0m8.4 0h0m8.4 0h0m8.4 0h0m8.4 0h0m8.4 0h0m8.4 0h0m8.4 0h0m8.4 0h0m8.4 0h0m8.4 0h0m8.4 0h0m8.4 0h0m8.4 0h0m8.4 0h0m8.4 0h0m176.4 0h0m8.4 0h0m8.4 0h0m42 0h0m8.4 0h0m8.4 0h0m8.4 0h0m8.4 0h0m8.4 0h0m8.4 0h0m16.8 0h0m8.4 0h0m8.4 0h0m16.8 0h0m8.4 0h0m8.4 0h0m8.4 0h0m8.4 0h0m8.4 0h0m8.4 0h0m8.4 0h0m8.4 0h0m8.4 0h0m8.4 0h0m8.4 0h0m8.4 0h0m8.4 0h0m8.4 0h0m8.4 0h0m8.4 0h0m8.4 0h0m8.4 0h0m8.4 0h0m8.4 0h0m8.4 0h0m8.4 0h0M180.6 130.2h0m8.4 0h0m8.4 0h0m8.4 0h0m8.4 0h0m8.4 0h0m8.4 0h0m8.4 0h0m8.4 0h0m8.4 0h0m8.4 0h0m8.4 0h0m8.4 0h0m8.4 0h0m8.4 0h0m184.8 0h0m8.4 0h0m50.4 0h0m16.8 0h0m16.8 0h0m8.4 0h0m8.4 0h0m8.4 0h0m8.4 0h0m8.4 0h0m8.4 0h0m16.8 0h0m8.4 0h0m8.4 0h0m8.4 0h0m8.4 0h0m8.4 0h0m8.4 0h0m8.4 0h0m8.4 0h0m8.4 0h0m8.4 0h0m8.4 0h0m8.4 0h0m8.4 0h0m8.4 0h0m8.4 0h0m8.4 0h0m8.4 0h0m8.4 0h0m8.4 0h0m25.2 0h0M180.6 138.6h0m8.4 0h0m8.4 0h0m8.4 0h0m8.4 0h0m8.4 0h0m8.4 0h0m8.4 0h0m8.4 0h0m8.4 0h0m8.4 0h0m8.4 0h0m8.4 0h0m8.4 0h0m8.4 0h0m210 0h0m8.4 0h0m8.4 0h0m75.6 0h0m8.4 0h0m8.4 0h0m8.4 0h0m8.4 0h0m8.4 0h0m8.4 0h0m8.4 0h0m8.4 0h0m8.4 0h0m8.4 0h0m8.4 0h0m8.4 0h0m8.4 0h0m8.4 0h0m8.4 0h0m8.4 0h0m8.4 0h0m8.4 0h0m8.4 0h0m8.4 0h0m8.4 0h0m8.4 0h0m8.4 0h0m8.4 0h0m8.4 0h0m25.2 0h0m25.2 0h0m8.4 0h0M189 147h0m8.4 0h0m8.4 0h0m8.4 0h0m8.4 0h0m8.4 0h0m8.4 0h0m8.4 0h0m8.4 0h0m8.4 0h0m8.4 0h0m8.4 0h0m201.6 0h0m8.4 0h0m8.4 0h0m8.4 0h0m8.4 0h0m8.4 0h0m75.6 0h0m8.4 0h0m8.4 0h0m8.4 0h0m8.4 0h0m8.4 0h0m8.4 0h0m8.4 0h0m8.4 0h0m8.4 0h0m8.4 0h0m8.4 0h0m8.4 0h0m8.4 0h0m8.4 0h0m8.4 0h0m8.4 0h0m8.4 0h0m8.4 0h0m8.4 0h0m8.4 0h0m8.4 0h0m8.4 0h0m8.4 0h0m8.4 0h0m8.4 0h0m8.4 0h0m33.6 0h0M189 155.4h0m8.4 0h0m8.4 0h0m8.4 0h0m8.4 0h0m8.4 0h0m8.4 0h0m8.4 0h0m8.4 0h0m8.4 0h0m8.4 0h0m201.6 0h0m8.4 0h0m8.4 0h0m8.4 0h0m8.4 0h0m8.4 0h0m8.4 0h0m8.4 0h0m8.4 0h0m16.8 0h0m8.4 0h0m8.4 0h0m8.4 0h0m8.4 0h0m8.4 0h0m8.4 0h0m8.4 0h0m8.4 0h0m8.4 0h0m8.4 0h0m8.4 0h0m8.4 0h0m8.4 0h0m8.4 0h0m8.4 0h0m8.4 0h0m8.4 0h0m8.4 0h0m8.4 0h0m8.4 0h0m8.4 0h0m8.4 0h0m8.4 0h0m8.4 0h0m8.4 0h0m8.4 0h0m8.4 0h0m8.4 0h0m8.4 0h0m8.4 0h0m8.4 0h0M205.8 163.8h0m8.4 0h0m8.4 0h0m8.4 0h0m50.4 0h0m193.2 0h0m8.4 0h0m8.4 0h0m8.4 0h0m8.4 0h0m8.4 0h0m8.4 0h0m8.4 0h0m8.4 0h0m8.4 0h0m8.4 0h0m8.4 0h0m8.4 0h0m8.4 0h0m8.4 0h0m8.4 0h0m8.4 0h0m8.4 0h0m8.4 0h0m16.8 0h0m8.4 0h0m8.4 0h0m8.4 0h0m8.4 0h0m8.4 0h0m8.4 0h0m8.4 0h0m8.4 0h0m8.4 0h0m8.4 0h0m8.4 0h0m8.4 0h0m8.4 0h0m8.4 0h0m8.4 0h0m8.4 0h0m8.4 0h0m8.4 0h0m8.4 0h0m8.4 0h0m8.4 0h0m8.4 0h0M205.8 172.2h0m8.4 0h0m8.4 0h0m8.4 0h0m50.4 0h0m184.8 0h0m8.4 0h0m8.4 0h0m8.4 0h0m8.4 0h0m8.4 0h0m8.4 0h0m8.4 0h0m8.4 0h0m8.4 0h0m8.4 0h0m8.4 0h0m8.4 0h0m8.4 0h0m8.4 0h0m8.4 0h0m8.4 0h0m8.4 0h0m8.4 0h0m8.4 0h0m8.4 0h0m25.2 0h0m8.4 0h0m8.4 0h0m8.4 0h0m8.4 0h0m8.4 0h0m8.4 0h0m8.4 0h0m8.4 0h0m8.4 0h0m8.4 0h0m8.4 0h0m8.4 0h0m8.4 0h0m8.4 0h0m8.4 0h0m8.4 0h0m8.4 0h0m8.4 0h0m8.4 0h0M214.2 180.6h0m8.4 0h0m8.4 0h0m226.8 0h0m8.4 0h0m8.4 0h0m8.4 0h0m8.4 0h0m8.4 0h0m8.4 0h0m8.4 0h0m8.4 0h0m8.4 0h0m8.4 0h0m8.4 0h0m8.4 0h0m8.4 0h0m8.4 0h0m8.4 0h0m8.4 0h0m16.8 0h0m8.4 0h0m8.4 0h0m8.4 0h0m8.4 0h0m8.4 0h0m8.4 0h0m33.6 0h0m8.4 0h0m8.4 0h0m8.4 0h0m8.4 0h0m8.4 0h0m8.4 0h0m8.4 0h0m8.4 0h0m8.4 0h0m8.4 0h0m8.4 0h0m8.4 0h0m8.4 0h0m8.4 0h0m8.4 0h0M214.2 189h0m8.4 0h0m8.4 0h0m25.2 0h0m33.6 0h0m168 0h0m8.4 0h0m8.4 0h0m8.4 0h0m8.4 0h0m8.4 0h0m8.4 0h0m8.4 0h0m8.4 0h0m8.4 0h0m8.4 0h0m8.4 0h0m8.4 0h0m8.4 0h0m8.4 0h0m8.4 0h0m8.4 0h0m8.4 0h0m16.8 0h0m8.4 0h0m8.4 0h0m8.4 0h0m8.4 0h0m8.4 0h0m42 0h0m8.4 0h0m8.4 0h0m8.4 0h0m8.4 0h0m25.2 0h0m8.4 0h0m8.4 0h0m8.4 0h0m8.4 0h0M222.6 197.4h0m8.4 0h0m8.4 0h0m8.4 0h0m67.2 0h0m142.8 0h0m8.4 0h0m8.4 0h0m8.4 0h0m8.4 0h0m8.4 0h0m8.4 0h0m8.4 0h0m8.4 0h0m8.4 0h0m8.4 0h0m8.4 0h0m8.4 0h0m8.4 0h0m8.4 0h0m8.4 0h0m8.4 0h0m8.4 0h0m16.8 0h0m8.4 0h0m8.4 0h0m8.4 0h0m8.4 0h0m58.8 0h0m8.4 0h0m8.4 0h0m42 0h0m8.4 0h0m8.4 0h0m8.4 0h0m42 0h0M247.8 205.8h0m8.4 0h0m8.4 0h0m193.2 0h0m8.4 0h0m8.4 0h0m8.4 0h0m8.4 0h0m8.4 0h0m8.4 0h0m8.4 0h0m8.4 0h0m8.4 0h0m8.4 0h0m8.4 0h0m8.4 0h0m8.4 0h0m8.4 0h0m8.4 0h0m8.4 0h0m8.4 0h0m8.4 0h0m16.8 0h0m8.4 0h0m8.4 0h0m67.2 0h0m8.4 0h0m58.8 0h0m8.4 0h0m8.4 0h0m8.4 0h0m33.6 0h0M256.2 214.2h0m8.4 0h0m193.2 0h0m8.4 0h0m8.4 0h0m8.4 0h0m8.4 0h0m8.4 0h0m8.4 0h0m8.4 0h0m8.4 0h0m8.4 0h0m8.4 0h0m8.4 0h0m8.4 0h0m8.4 0h0m8.4 0h0m8.4 0h0m8.4 0h0m8.4 0h0m8.4 0h0m8.4 0h0m8.4 0h0m84 0h0m8.4 0h0m58.8 0h0m8.4 0h0m8.4 0h0m8.4 0h0M264.6 222.6h0m25.2 0h0m8.4 0h0m8.4 0h0m8.4 0h0m8.4 0h0m142.8 0h0m8.4 0h0m8.4 0h0m8.4 0h0m8.4 0h0m8.4 0h0m8.4 0h0m8.4 0h0m8.4 0h0m8.4 0h0m8.4 0h0m8.4 0h0m8.4 0h0m8.4 0h0m8.4 0h0m8.4 0h0m8.4 0h0m8.4 0h0m8.4 0h0m8.4 0h0m8.4 0h0m84 0h0m58.8 0h0m16.8 0h0m50.4 0h0M273 231h0m8.4 0h0m8.4 0h0m8.4 0h0m8.4 0h0m8.4 0h0m8.4 0h0m8.4 0h0m134.4 0h0m8.4 0h0m8.4 0h0m8.4 0h0m8.4 0h0m8.4 0h0m8.4 0h0m8.4 0h0m8.4 0h0m8.4 0h0m8.4 0h0m8.4 0h0m8.4 0h0m8.4 0h0m8.4 0h0m8.4 0h0m8.4 0h0m8.4 0h0m8.4 0h0m8.4 0h0m8.4 0h0m92.4 0h0m117.6 0h0m8.4 0h0M289.8 239.4h0m8.4 0h0m8.4 0h0m8.4 0h0m8.4 0h0m8.4 0h0m8.4 0h0m8.4 0h0m126 0h0m8.4 0h0m8.4 0h0m25.2 0h0m8.4 0h0m8.4 0h0m8.4 0h0m8.4 0h0m8.4 0h0m8.4 0h0m8.4 0h0m8.4 0h0m8.4 0h0m8.4 0h0m8.4 0h0m8.4 0h0m8.4 0h0m8.4 0h0m134.4 0h0m16.8 0h0m42 0h0M281.4 247.8h0m8.4 0h0m8.4 0h0m8.4 0h0m8.4 0h0m8.4 0h0m8.4 0h0m8.4 0h0m8.4 0h0m8.4 0h0m176.4 0h0m8.4 0h0m8.4 0h0m8.4 0h0m8.4 0h0m8.4 0h0m8.4 0h0m8.4 0h0m8.4 0h0m8.4 0h0m8.4 0h0m8.4 0h0m151.2 0h0m42 0h0m8.4 0h0M281.4 256.2h0m8.4 0h0m8.4 0h0m8.4 0h0m8.4 0h0m8.4 0h0m8.4 0h0m8.4 0h0m8.4 0h0m8.4 0h0m176.4 0h0m8.4 0h0m8.4 0h0m8.4 0h0m8.4 0h0m8.4 0h0m8.4 0h0m8.4 0h0m8.4 0h0m8.4 0h0m8.4 0h0m168 0h0m25.2 0h0m8.4 0h0m8.4 0h0M281.4 264.6h0m8.4 0h0m8.4 0h0m8.4 0h0m8.4 0h0m8.4 0h0m8.4 0h0m8.4 0h0m8.4 0h0m8.4 0h0m8.4 0h0m8.4 0h0m159.6 0h0m8.4 0h0m8.4 0h0m8.4 0h0m8.4 0h0m8.4 0h0m8.4 0h0m8.4 0h0m8.4 0h0m8.4 0h0m176.4 0h0m8.4 0h0m16.8 0h0m8.4 0h0m8.4 0h0m8.4 0h0m50.4 0h0m8.4 0h0M273 273h0m8.4 0h0m8.4 0h0m8.4 0h0m8.4 0h0m8.4 0h0m8.4 0h0m8.4 0h0m8.4 0h0m8.4 0h0m8.4 0h0m8.4 0h0m8.4 0h0m8.4 0h0m8.4 0h0m8.4 0h0m142.8 0h0m8.4 0h0m8.4 0h0m8.4 0h0m8.4 0h0m8.4 0h0m8.4 0h0m8.4 0h0m8.4 0h0m184.8 0h0m42 0h0m8.4 0h0m42 0h0m8.4 0h0m8.4 0h0M281.4 281.4h0m8.4 0h0m8.4 0h0m8.4 0h0m8.4 0h0m8.4 0h0m8.4 0h0m8.4 0h0m8.4 0h0m8.4 0h0m8.4 0h0m8.4 0h0m8.4 0h0m8.4 0h0m8.4 0h0m142.8 0h0m8.4 0h0m8.4 0h0m8.4 0h0m8.4 0h0m8.4 0h0m8.4 0h0m8.4 0h0m8.4 0h0m201.6 0h0m8.4 0h0m75.6 0h0m8.4 0h0m8.4 0h0m33.6 0h0M289.8 289.8h0m8.4 0h0m8.4 0h0m8.4 0h0m8.4 0h0m8.4 0h0m8.4 0h0m8.4 0h0m8.4 0h0m8.4 0h0m8.4 0h0m8.4 0h0m8.4 0h0m151.2 0h0m8.4 0h0m8.4 0h0m8.4 0h0m8.4 0h0m8.4 0h0m8.4 0h0m8.4 0h0m8.4 0h0m310.8 0h0M289.8 298.2h0m8.4 0h0m8.4 0h0m8.4 0h0m8.4 0h0m8.4 0h0m8.4 0h0m8.4 0h0m8.4 0h0m8.4 0h0m8.4 0h0m8.4 0h0m8.4 0h0m151.2 0h0m8.4 0h0m8.4 0h0m8.4 0h0m8.4 0h0m8.4 0h0m8.4 0h0m8.4 0h0m8.4 0h0m260.4 0h0m8.4 0h0M298.2 306.6h0m8.4 0h0m8.4 0h0m8.4 0h0m8.4 0h0m8.4 0h0m8.4 0h0m8.4 0h0m8.4 0h0m8.4 0h0m8.4 0h0m8.4 0h0m142.8 0h0m8.4 0h0m8.4 0h0m8.4 0h0m8.4 0h0m8.4 0h0m8.4 0h0m8.4 0h0m8.4 0h0m8.4 0h0m25.2 0h0m218.4 0h0m8.4 0h0m8.4 0h0m8.4 0h0m16.8 0h0m8.4 0h0M306.6 315h0m8.4 0h0m8.4 0h0m8.4 0h0m8.4 0h0m8.4 0h0m8.4 0h0m8.4 0h0m8.4 0h0m8.4 0h0m8.4 0h0m142.8 0h0m8.4 0h0m8.4 0h0m8.4 0h0m8.4 0h0m8.4 0h0m8.4 0h0m8.4 0h0m8.4 0h0m25.2 0h0m8.4 0h0m210 0h0m8.4 0h0m8.4 0h0m8.4 0h0m8.4 0h0m8.4 0h0m8.4 0h0m8.4 0h0M315 323.4h0m8.4 0h0m8.4 0h0m8.4 0h0m8.4 0h0m8.4 0h0m8.4 0h0m8.4 0h0m8.4 0h0m159.6 0h0m8.4 0h0m8.4 0h0m8.4 0h0m8.4 0h0m8.4 0h0m8.4 0h0m33.6 0h0m201.6 0h0m8.4 0h0m8.4 0h0m8.4 0h0m8.4 0h0m8.4 0h0m8.4 0h0m8.4 0h0m8.4 0h0m8.4 0h0m50.4 0h0M315 331.8h0m8.4 0h0m8.4 0h0m8.4 0h0m8.4 0h0m8.4 0h0m8.4 0h0m8.4 0h0m168 0h0m8.4 0h0m8.4 0h0m8.4 0h0m8.4 0h0m8.4 0h0m8.4 0h0m33.6 0h0m193.2 0h0m8.4 0h0m8.4 0h0m8.4 0h0m8.4 0h0m8.4 0h0m8.4 0h0m8.4 0h0m8.4 0h0m8.4 0h0m8.4 0h0m8.4 0h0M315 340.2h0m8.4 0h0m8.4 0h0m8.4 0h0m8.4 0h0m8.4 0h0m8.4 0h0m176.4 0h0m8.4 0h0m8.4 0h0m8.4 0h0m8.4 0h0m8.4 0h0m235.2 0h0m8.4 0h0m8.4 0h0m8.4 0h0m8.4 0h0m8.4 0h0m8.4 0h0m8.4 0h0m8.4 0h0m8.4 0h0m8.4 0h0m8.4 0h0M315 348.6h0m8.4 0h0m8.4 0h0m8.4 0h0m8.4 0h0m8.4 0h0m8.4 0h0m184.8 0h0m8.4 0h0m8.4 0h0m8.4 0h0m8.4 0h0m226.8 0h0m8.4 0h0m8.4 0h0m8.4 0h0m8.4 0h0m8.4 0h0m8.4 0h0m8.4 0h0m8.4 0h0m8.4 0h0m8.4 0h0m8.4 0h0m8.4 0h0M315 357h0m8.4 0h0m8.4 0h0m8.4 0h0m8.4 0h0m8.4 0h0m193.2 0h0m8.4 0h0m8.4 0h0m8.4 0h0m235.2 0h0m8.4 0h0m8.4 0h0m8.4 0h0m8.4 0h0m8.4 0h0m8.4 0h0m8.4 0h0m8.4 0h0m8.4 0h0m8.4 0h0m8.4 0h0M315 365.4h0m8.4 0h0m8.4 0h0m8.4 0h0m8.4 0h0m8.4 0h0m193.2 0h0m8.4 0h0m8.4 0h0m243.6 0h0m8.4 0h0m8.4 0h0m33.6 0h0m8.4 0h0m8.4 0h0m8.4 0h0m8.4 0h0m8.4 0h0M315 373.8h0m8.4 0h0m8.4 0h0m8.4 0h0m8.4 0h0m520.8 0h0m8.4 0h0m8.4 0h0m8.4 0h0M21 382.2h0m294 0h0m8.4 0h0m8.4 0h0m8.4 0h0m621.6 0h0M315 390.6h0m8.4 0h0m8.4 0h0m546 0h0m67.2 0h0m8.4 0h0M21 399h0m294 0h0m8.4 0h0m8.4 0h0m604.8 0h0M21 407.4h0m294 0h0m8.4 0h0M315 415.8h0m8.4 0h0m8.4 0h0M323.4 424.2h0m8.4 0h0m25.2 0h0M331.8 432.6h0m8.4 0h0" stroke="#000" stroke-width="3.53" stroke-linecap="round"/></svg>